<svg width="512" height="512" viewBox="0 0 512 512" fill="none" xmlns="http://www.w3.org/2000/svg">
<rect width="512" height="512" rx="256" fill="#0000FF"/>
<path d="M369.02 58.811C369.02 59.0697 368.701 62.3142 368.323 66.0365C367.925 69.7587 367.348 75.4516 367.029 78.6762C366.691 81.9008 366.392 84.8666 366.332 85.2448C366.273 85.623 366.054 87.7728 365.835 90.022C365.616 92.2713 365.397 94.421 365.337 94.7992C365.277 95.1774 365.019 97.785 364.74 100.572C364.302 104.991 362.431 123.044 362.152 125.692C362.093 126.229 362.013 127.065 361.953 127.583C361.894 128.12 361.714 129.812 361.555 131.385C361.396 132.937 361.117 134.49 360.958 134.788C360.799 135.107 348.756 155.589 334.186 180.311C319.615 205.033 307.672 225.336 307.652 225.436C307.613 225.635 326.144 236.702 326.522 236.722C326.642 236.722 329.787 231.567 333.489 225.257C337.211 218.927 340.356 213.652 340.456 213.513C340.615 213.294 341.292 213.612 343.641 214.946C345.293 215.881 347.622 217.215 348.856 217.912L351.085 219.166L357.196 208.397C360.56 202.465 363.486 197.33 363.665 197.012L364.023 196.414L358.968 193.548C354.369 190.94 353.932 190.642 354.111 190.284C354.847 188.95 383.033 141.238 383.212 141.039C383.451 140.8 388.188 138.65 405.048 131.126C410.024 128.897 415.995 126.249 418.285 125.214C439.165 115.859 444.997 113.191 444.898 113.092C444.539 112.754 369.239 58.373 369.139 58.373C369.079 58.373 369.02 58.5721 369.02 58.811ZM356.36 197.529C356.519 197.668 353.613 203.083 353.374 203.083C353.215 203.083 349.095 200.774 348.637 200.435C348.279 200.176 348.318 200.057 349.612 197.887C350.349 196.633 351.085 195.419 351.224 195.18C351.503 194.742 351.503 194.762 353.832 196.056C355.126 196.773 356.26 197.43 356.36 197.529ZM349.373 206.287C350.209 206.745 350.906 207.223 350.906 207.342C350.906 207.701 348.418 212.04 348.219 212.04C348.119 212.02 346.885 211.383 345.512 210.587L342.984 209.134L344.417 206.725L345.83 204.297L346.825 204.854C347.383 205.173 348.517 205.81 349.373 206.287Z" fill="white"/>
<path d="M175.943 102.374C161.293 103.23 145.767 107.231 132.411 113.6C113.461 122.657 96.9399 137.128 85.3154 154.824C82.4292 159.243 80.6775 162.268 78.1894 167.304C72.7951 178.212 69.1326 189.996 67.381 202.277C65.7089 213.962 65.7089 223.635 67.381 235.32C69.8492 252.458 75.8406 268.322 85.3154 282.773C99.03 303.674 119.054 319.598 142.383 328.157C147.359 329.988 148.812 330.446 153.55 331.66C172.579 336.577 192.106 336.656 211.075 331.939C238.305 325.131 261.933 308.968 278.155 286.018C289.163 270.432 296.05 252.597 298.538 233.13C299.195 228.174 299.394 224.631 299.394 218.799C299.394 215.793 299.294 212.031 299.175 210.438C297.742 192.046 292.129 174.251 282.972 158.984C271.786 140.313 255.523 125.066 236.215 115.113C231.717 112.784 228.313 111.291 223.317 109.46C218.042 107.529 216.768 107.131 211.274 105.738C199.909 102.872 187.587 101.697 175.943 102.374Z" fill="white"/>
<path d="M352.699 218.121C352.699 218.699 333.431 375.271 333.351 375.331C333.272 375.391 300.15 390.578 299.811 390.718C299.612 390.797 299.553 387.055 299.553 372.385V353.953H193.26V511.999H299.553V436.619L300.01 436.42C300.249 436.3 316.571 428.796 336.257 419.759C355.943 410.722 372.106 403.278 372.146 403.238C372.206 403.198 372.067 402.74 371.828 402.243C371.43 401.347 371.43 401.327 371.828 401.327C372.047 401.327 372.206 401.188 372.206 400.969C372.206 400.67 393.743 225.048 393.982 223.476L394.062 222.859L374.037 220.41C363.01 219.057 353.694 217.902 353.356 217.843C352.818 217.763 352.699 217.823 352.699 218.121Z" fill="white"/>
</svg>
